# xmcd CD database file
# Copyright (C) 1997 Ti Kan
#
# Track frame offsets:
#  150
#  15207
#  31000
#  49455
#  65670
#  78050
#  94185
#  112035
#  128695
#  144145
#  162090
#  179487
#  200722
#  214415
#
# Disc length: 3096 seconds
#
# Revision: 1
# Processed by: cddbd v1.4b41PL1 Copyright (c) Steve Scherf et al.
# Submitted via: CDWizzard Release:4.23
#
DISCID=bb0c160e
DTITLE=Smokie - Greatest Hits
DYEAR=1900
DGENRE=
TTITLE0=Don't Play Your Rock 'N' Roll To Me
TTITLE1=Living Next Door To Alice
TTITLE2=Lay Back In The Arms Of Someone
TTITLE3=It's Your Life
TTITLE4=Needles And Pins
TTITLE5=For A Few Dollars More
TTITLE6=Stumblin' In
TTITLE7=Oh Carol
TTITLE8=If You Think You Know How To Love Me
TTITLE9=Mexican Girl
TTITLE10=Baby It's You
TTITLE11=Poor Lady
TTITLE12=Something's Been Making Me Blue
TTITLE13=Wild Wild Angels
EXTD=
EXTT0=
EXTT1=
EXTT2=
EXTT3=
EXTT4=
EXTT5=
EXTT6=
EXTT7=
EXTT8=
EXTT9=
EXTT10=
EXTT11=
EXTT12=
EXTT13=
PLAYORDER=
